<?xml version="1.0" encoding="UTF-8"?>
<!DOCTYPE svg PUBLIC "-//W3C//DTD SVG 1.1//EN" "http://www.w3.org/Graphics/SVG/1.1/DTD/svg11.dtd">
<!-- Creator: CorelDRAW 2020 (64 Bit) -->
<svg xmlns="http://www.w3.org/2000/svg" xml:space="preserve" width="210mm" height="163.333mm" version="1.1" style="shape-rendering:geometricPrecision; text-rendering:geometricPrecision; image-rendering:optimizeQuality; fill-rule:evenodd; clip-rule:evenodd"
viewBox="0 0 21000 16333.34"
 xmlns:xlink="http://www.w3.org/1999/xlink"
 xmlns:xodm="http://www.corel.com/coreldraw/odm/2003">
 <defs>
  <style type="text/css">
   <![CDATA[
    .fil0 {fill:#FEFEFE;fill-rule:nonzero}
   ]]>
  </style>
 </defs>
 <g id="Camada_x0020_1">
  <metadata id="CorelCorpID_0Corel-Layer"/>
  <path class="fil0" d="M1750 16333.34c-966.51,0 -1750,-783.86 -1750,-1750l0 -12833.34c0,-966.51 783.49,-1750 1750,-1750l17500 0c966.15,0 1750,783.49 1750,1750l0 88.6 -2752.6 0 -619.8 1734.32 -616.14 -1734.32 -3543.75 0 0 2303.07 -1024.48 -2303.07 -2865.63 0 -2978.64 6732.76 2398.96 0 0 5971.87 7426.56 0 1163.02 -1279.68 1163.02 1279.68 2249.48 0 0 40.11c0,966.14 -783.85,1750 -1750,1750l-17500 0zm15844.79 -4229.17l-1538.54 1688.02 -1819.27 0 2460.94 -2614.06 -2460.94 -2643.23 1873.96 0 1513.02 1702.6 1531.25 -1702.6 1844.79 0 -2479.17 2628.64 2479.17 2628.65 -1873.96 0 -1531.25 -1688.02zm3405.21 -2446.35l0 3036.97 -1432.81 -1527.6 1432.81 -1509.37zm-9785.42 2923.95l3026.05 0 0 1210.42 -4447.92 0 0 -5220.83 4447.92 0 0 1206.77 -3026.05 0 0 816.67 2949.48 0 0 1177.6 -2949.48 0 0 813.02 0 -3.65zm8374.48 -8436.45l-1345.31 3667.7 -1254.17 0 -1341.66 -3656.77 0 3656.77 -1410.94 0 0 -5224.48 2231.25 0 1163.02 3255.73 1173.96 -3255.73 2194.79 0 0 5224.48 -1410.94 0 0 -3667.7zm-7393.75 2621.35l-2402.6 0 -433.86 1046.35 -1567.7 0 2275 -5224.48 1866.66 0 2307.82 5224.48 -1607.82 0 -437.5 -1046.35zm-1203.12 -2883.85l-710.94 1709.89 1418.23 0 -707.29 -1709.89z"/>
 </g>
</svg>
