<?xml version="1.0" encoding="UTF-8"?>
<!DOCTYPE svg PUBLIC "-//W3C//DTD SVG 1.1//EN" "http://www.w3.org/Graphics/SVG/1.1/DTD/svg11.dtd">
<!-- Creator: CorelDRAW 2020 (64 Bit) -->
<svg xmlns="http://www.w3.org/2000/svg" xml:space="preserve" width="210.2mm" height="163.533mm" version="1.1" style="shape-rendering:geometricPrecision; text-rendering:geometricPrecision; image-rendering:optimizeQuality; fill-rule:evenodd; clip-rule:evenodd"
viewBox="0 0 21020 16353.34"
 xmlns:xlink="http://www.w3.org/1999/xlink"
 xmlns:xodm="http://www.corel.com/coreldraw/odm/2003">
 <defs>
  <style type="text/css">
   <![CDATA[
    .str0 {stroke:#2B2A29;stroke-width:20;stroke-miterlimit:22.9256}
    .fil0 {fill:#FEFEFE;fill-rule:nonzero}
   ]]>
  </style>
 </defs>
 <g id="Camada_x0020_1">
  <metadata id="CorelCorpID_0Corel-Layer"/>
  <path class="fil0 str0" d="M8749.06 1756.36c-3532.81,0 -6409.38,2865.63 -6409.38,6409.38 0,3532.81 2876.56,6409.38 6409.38,6409.38 3543.75,0 6409.38,-2876.56 6409.38,-6409.38 0,-3543.75 -2865.63,-6409.38 -6409.38,-6409.38zm-1454.69 10193.75c-1520.31,-579.69 -2603.13,-2056.25 -2603.13,-3784.38 0,-1728.13 1082.81,-3204.69 2603.13,-3795.31l0 7579.69zm2909.38 10.94l0 -7590.63c1520.31,590.63 2603.13,2067.19 2603.13,3795.31 0,1728.12 -1082.81,3204.69 -2603.13,3795.31l0 0.01zm9056.25 -11951.05l-17500 0c-966.15,0 -1750,783.86 -1750,1750l0 12833.33c0,966.15 783.85,1750 1750,1750l17500 0.01c966.15,0 1750,-783.85 1750,-1750l0 -12833.34c0,-966.15 -783.85,-1750 -1750,-1750zm-7229.69 15166.67l-3292.19 0c-3871.88,0 -7065.63,-3117.19 -7065.63,-6934.38 0.01,-4178.12 3193.76,-7065.62 7065.63,-7065.62l3292.19 0c3828.13,0 7317.19,2887.5 7317.19,7065.63 0,3817.19 -3489.06,6934.38 -7317.19,6934.38l0 -0.01z"/>
 </g>
</svg>
