<?xml version="1.0" encoding="UTF-8"?>
<!DOCTYPE svg PUBLIC "-//W3C//DTD SVG 1.1//EN" "http://www.w3.org/Graphics/SVG/1.1/DTD/svg11.dtd">
<!-- Creator: CorelDRAW 2020 (64 Bit) -->
<svg xmlns="http://www.w3.org/2000/svg" xml:space="preserve" width="210.2mm" height="163.533mm" version="1.1" style="shape-rendering:geometricPrecision; text-rendering:geometricPrecision; image-rendering:optimizeQuality; fill-rule:evenodd; clip-rule:evenodd"
viewBox="0 0 21020 16353.34"
 xmlns:xlink="http://www.w3.org/1999/xlink"
 xmlns:xodm="http://www.corel.com/coreldraw/odm/2003">
 <defs>
  <style type="text/css">
   <![CDATA[
    .str0 {stroke:#2B2A29;stroke-width:20;stroke-miterlimit:22.9256}
    .fil0 {fill:#FEFEFE;fill-rule:nonzero}
   ]]>
  </style>
 </defs>
 <g id="Camada_x0020_1">
  <metadata id="CorelCorpID_0Corel-Layer"/>
  <path class="fil0 str0" d="M17615.73 13765.73c0,247.92 -167.71,426.56 -408.33,426.56 -247.92,0 -408.33,-189.58 -408.33,-426.56 0,-236.98 160.42,-426.56 408.33,-426.56 240.63,0 408.33,189.58 408.33,426.56zm-11331.25 -426.56c-258.85,0 -408.33,189.58 -408.33,426.56 0,236.98 149.48,426.56 408.33,426.56 236.98,0 397.4,-178.65 397.4,-426.56 -3.65,-236.98 -160.42,-426.56 -397.4,-426.56zm4283.85 -10.94c-196.88,0 -317.19,127.6 -346.35,317.19l696.35 0c-32.81,-207.81 -160.42,-317.19 -350,-317.19zm3930.21 10.94c-247.92,0 -397.4,189.58 -397.4,426.56 0,236.98 149.48,426.56 397.4,426.56 247.92,0 408.33,-178.65 408.33,-426.56 0,-236.98 -160.42,-426.56 -408.33,-426.56zm3860.94 951.56c0,10.94 10.94,18.23 10.94,40.1 0,10.94 -10.94,18.23 -10.94,40.1 -10.94,10.94 -10.94,18.23 -18.23,29.17 -10.94,10.94 -18.23,18.23 -40.1,18.23 -10.94,10.94 -18.23,10.94 -40.1,10.94 -10.94,0 -18.23,0 -40.1,-10.94 -10.94,0 -18.23,-10.94 -29.17,-18.23 -10.94,-10.94 -18.23,-18.23 -18.23,-29.17 -10.94,-18.23 -10.94,-29.17 -10.94,-40.1 0,-18.23 0,-29.17 10.94,-40.1 0,-18.23 10.94,-29.17 18.23,-40.1 10.94,-10.94 18.23,-10.94 29.17,-18.23 18.23,-10.94 29.17,-10.94 40.1,-10.94 18.23,0 29.17,0 40.1,10.94 18.23,10.94 29.17,10.94 40.1,18.23 10.93,7.29 7.29,21.88 18.23,40.1zm-80.21 51.04c18.23,0 18.23,-10.94 29.17,-10.94 10.94,-10.94 10.94,-18.23 10.94,-29.17 0,-10.94 0,-18.23 -10.94,-29.17 -10.94,0 -18.23,-10.94 -40.1,-10.94l-58.34 0.01 0 127.6 29.17 0.01 0 -51.04 10.93 0 40.1 51.04 29.18 0 -40.1 -47.4 -0.01 0zm2730.73 -12581.77l0 12833.33c0,966.15 -783.85,1750 -1750,1750l-17500 0.01c-966.15,0 -1750,-783.85 -1750,-1750l0 -12833.34c0,-966.15 783.85,-1750 1750,-1750l17500 0c966.15,0 1750,783.85 1750,1750zm-18666.67 5089.58c0,2789.06 2264.06,5049.48 5049.48,5049.48 991.67,0 1965.1,-298.96 2789.06,-842.19 -2657.81,-2161.98 -2639.58,-6241.67 0,-8403.65 -823.96,-546.88 -1797.4,-842.19 -2789.06,-842.19 -2785.42,-3.65 -5049.48,2260.42 -5049.48,5038.54l0 0.01zm8166.67 3966.67c2570.31,-2005.21 2559.38,-5913.54 0,-7929.69 -2559.38,2016.15 -2570.31,5928.13 0,7929.69zm-5188.02 2781.77c0,-317.19 -207.81,-525 -535.94,-535.94 -167.71,0 -346.35,51.04 -466.67,236.98 -87.5,-149.48 -236.98,-236.98 -444.79,-236.98 -138.54,0 -277.08,51.04 -386.46,196.88l0 -160.42 -298.95 0 0 1338.02 298.95 0c0,-689.06 -91.15,-1101.04 328.13,-1101.04 371.88,0 298.96,371.88 298.96,1101.04l288.02 0c0,-667.19 -91.15,-1101.04 328.13,-1101.04 371.88,0 298.96,364.58 298.96,1101.04l298.95 0 0 -838.54 -7.29 0zm1636.98 -499.48l-288.02 0 0 160.42c-98.44,-120.31 -236.98,-196.88 -426.56,-196.88 -375.52,0 -663.54,298.96 -663.54,703.65 0,408.33 288.02,703.65 663.54,703.65 189.58,0 328.13,-69.27 426.56,-196.88l0 167.71 288.02 0 0 -1341.67zm1476.56 933.34c0,-546.88 -834.9,-298.96 -834.9,-554.17 0,-207.81 433.85,-175 674.48,-40.1l120.31 -236.98c-342.71,-222.4 -1101.04,-218.75 -1101.04,298.96 0,521.35 834.9,302.6 834.9,546.88 0,229.69 -492.19,211.46 -754.69,29.17l-127.6 229.69c408.33,277.08 1188.54,218.75 1188.54,-273.44l0 -0.01zm1290.63 339.06l-80.21 -247.92c-138.54,76.56 -444.79,160.42 -444.79,-149.48l0 -605.21 477.6 0 0 -269.79 -477.6 0 0 -408.33 -298.96 0 0 408.33 -277.09 0 0 266.15 277.09 0 0 608.85c0,641.67 630.73,525 823.96,397.4zm484.89 -488.54l1002.61 0c0,-590.63 -269.79,-823.96 -634.38,-823.96 -386.46,0 -663.54,288.02 -663.54,703.65 0,747.4 823.96,871.35 1232.29,517.71l-138.54 -218.75c-284.38,233.33 -714.58,211.46 -798.44,-178.65zm2154.69 -783.86c-167.71,-72.92 -422.92,-65.63 -554.17,160.42l0 -160.42 -298.96 0 0 1338.02 298.96 0 0 -754.68c0,-422.92 346.35,-368.23 466.67,-306.25l87.5 -277.08 0 -0.01zm386.46 667.19c0,-415.63 422.92,-550.52 754.69,-306.25l138.54 -236.98c-422.92,-331.77 -1192.19,-149.48 -1192.19,546.88 0,721.88 816.67,867.71 1192.19,546.88l-138.54 -236.98c-335.42,236.98 -754.69,94.79 -754.69,-313.54l0 -0.01zm2431.77 -667.19l-298.96 0 0 160.42c-302.6,-401.04 -1090.1,-175 -1090.1,506.77 0,700 816.67,900.52 1090.1,506.77l0 167.71 298.96 0 0 -1341.67zm1228.64 0c-87.5,-43.75 -401.04,-105.73 -554.17,160.42l0.01 -160.42 -288.02 0 0 1338.02 288.02 0 0 -754.68c0,-401.04 328.13,-375.52 466.67,-306.25l87.5 -277.08 -0.01 -0.01zm1469.28 -543.23l-288.03 0 0 703.65c-298.96,-397.4 -1090.1,-185.94 -1090.1,506.77 0,707.29 820.31,896.88 1090.1,506.77l0 167.71 288.03 0 0 -1884.9zm277.08 -2738.02l0 167.71 29.17 0 0 -167.71 69.27 0 0 -29.17 -167.71 0.01 0 29.17 69.27 -0.01zm240.62 4513.55c0,-18.23 0,-40.1 -10.94,-58.33 -10.94,-10.94 -18.23,-29.17 -29.17,-40.1 -10.94,-10.94 -29.17,-18.23 -40.1,-29.17 -18.23,0 -40.1,-10.94 -58.33,-10.94 -10.94,0 -29.17,10.94 -51.04,10.94 -18.23,10.94 -29.17,18.23 -40.1,29.17 -18.23,10.94 -29.17,29.17 -29.17,40.1 -10.94,18.23 -10.94,40.1 -10.94,58.33 0,10.94 0,29.17 10.94,51.04 0,10.94 10.94,29.17 29.17,40.1 10.94,10.94 18.23,18.23 40.1,29.17 18.23,10.94 40.1,10.94 51.04,10.94 18.23,0 40.1,0 58.33,-10.94 10.94,-10.94 29.17,-18.23 40.1,-29.17 10.94,-10.94 18.23,-29.17 29.17,-40.1 10.94,-21.88 10.94,-40.1 10.94,-51.04zm116.67 -4546.36l-51.04 0 -58.33 127.6 -58.33 -127.6 -51.05 0 0 196.88 29.17 0 0 -149.48 58.33 127.6 40.1 0 51.04 -127.6 0 149.48 40.11 0 0 -196.88zm160.42 -2934.89c0,-2778.13 -2264.06,-5042.19 -5049.48,-5042.19 -991.67,0 -1965.1,298.96 -2789.06,842.19 2628.65,2161.98 2668.75,6252.6 0,8403.65 823.96,546.88 1804.69,842.19 2789.06,842.19 2785.42,3.65 5049.48,-2256.77 5049.48,-5045.83l0 -0.01z"/>
 </g>
</svg>
