<?xml version="1.0" encoding="UTF-8"?>
<!DOCTYPE svg PUBLIC "-//W3C//DTD SVG 1.1//EN" "http://www.w3.org/Graphics/SVG/1.1/DTD/svg11.dtd">
<!-- Creator: CorelDRAW 2020 (64 Bit) -->
<svg xmlns="http://www.w3.org/2000/svg" xml:space="preserve" width="210mm" height="163.333mm" version="1.1" style="shape-rendering:geometricPrecision; text-rendering:geometricPrecision; image-rendering:optimizeQuality; fill-rule:evenodd; clip-rule:evenodd"
viewBox="0 0 21000 16333.34"
 xmlns:xlink="http://www.w3.org/1999/xlink"
 xmlns:xodm="http://www.corel.com/coreldraw/odm/2003">
 <defs>
  <style type="text/css">
   <![CDATA[
    .fil0 {fill:#FEFEFE;fill-rule:nonzero}
   ]]>
  </style>
 </defs>
 <g id="Camada_x0020_1">
  <metadata id="CorelCorpID_0Corel-Layer"/>
  <path class="fil0" d="M17139.06 7266.15c0,0 277.08,1356.25 339.06,1640.63l-1217.7 -0.01c120.31,-324.48 583.33,-1585.94 583.33,-1585.94 -7.29,10.94 120.31,-331.77 193.23,-543.23l102.08 488.54 0 0.01zm3860.94 -5516.15l0 12833.33c0,966.15 -783.85,1750 -1750,1750l-17500 0.01c-966.15,0 -1750,-783.85 -1750,-1750l0 -12833.34c0,-966.15 783.85,-1750 1750,-1750l17500 0c966.15,0 1750,783.85 1750,1750zm-15440.1 9158.34l2304.16 -5658.34 -1549.48 0 -1432.81 3864.58 -156.77 -783.85 -510.42 -2603.13c-83.85,-360.94 -342.71,-463.02 -663.54,-477.6l-2358.85 0 -25.52 113.02c576.04,145.83 1090.1,357.29 1538.54,623.44l1305.21 4921.88 1549.48 0zm3441.66 7.29l918.75 -5665.63 -1465.62 0 -915.1 5665.63 1461.97 0zm5100.52 -1852.09c7.29,-645.31 -386.46,-1137.5 -1228.65,-1542.19 -514.06,-258.85 -827.6,-433.85 -827.6,-700 7.29,-240.63 266.15,-488.54 842.19,-488.54 477.6,-10.94 827.6,102.08 1090.1,215.1l131.25 61.98 200.52 -1225c-288.02,-113.02 -747.4,-240.63 -1312.5,-240.63 -1447.4,0 -2464.58,772.92 -2471.88,1873.96 -10.94,813.02 729.17,1265.1 1283.33,1538.54 565.1,277.08 758.33,459.38 758.33,703.65 -7.29,379.17 -459.38,554.17 -878.65,554.17 -583.33,0 -896.88,-91.15 -1374.48,-302.6l-193.23 -91.15 -204.17 1272.4c342.71,156.77 977.08,295.31 1633.33,302.6 1538.54,3.65 2541.15,-758.33 2552.08,-1932.29l0.03 0zm5147.92 1852.09l-1181.25 -5665.63 -1133.85 0c-350,0 -616.15,102.08 -765.63,470.31l-2176.56 5195.31 1538.54 0.01c0,0 251.56,-700 306.25,-849.48l1881.25 0c43.75,200.52 175,849.48 175,849.48l1356.25 0z"/>
 </g>
</svg>
